<svg xmlns="http://www.w3.org/2000/svg" width="32" height="32" viewBox="0 0 32 32"><path fill="#444" d="M13.43 10.26c-.652 0-1.182.53-1.182 1.18s.53 1.183 1.182 1.183c.653 0 1.18-.53 1.18-1.182s-.528-1.18-1.18-1.18zm0 1.086c-.38 0-.688-.192-.688-.428s.308-.428.688-.428c.38 0 .688.192.688.428s-.308.428-.688.428zm13.464 4.71c-1.165-1.12-6.992-1.82-8.83-2.023.09-.21.165-.428.228-.652.25-.11.52-.21.8-.296.035.1.196.486.287.67 3.696.1 3.886-2.748 4.036-3.53.147-.762.14-1.5 1.408-2.848-1.89-.55-4.606.853-5.516 2.943-.342-.13-.685-.224-1.024-.282-.243-.98-1.508-3.71-4.827-3.71-2.15 0-4.318.888-5.948 2.436-.88.834-1.57 1.824-2.052 2.944-.52 1.21-.785 2.54-.785 3.957 0 4.934 3.368 9.257 5.27 9.257.832 0 1.547-.622 1.715-1.18.14.383.572 1.572.714 1.874.21.448 1.18.835 1.603.37.545.303 1.546.485 2.09-.323 1.05.222 1.98-.404 2-1.152.515-.026.768-.75.656-1.326-.082-.424-.968-1.947-1.314-2.472.684.557 2.418.714 2.628 0 1.103.866 2.823.412 2.96-.293 1.34.347 2.877-.418 2.625-1.344 2.153-.15 1.877-2.44 1.273-3.02zm-5.61-3.8c-.566-.222-1.286-.363-1.79-.363-.715 0-1.15.405-1.824.405-.14 0-.478 0-.75-.096.18.187.4.288.83.288.255 0 .763-.13 1.174-.254.006.087.015.172.027.258-.77.184-1.577.674-1.81.8-.52-1.148-.074-2.234.34-2.735 1.85.003 3.347 1.275 3.804 1.697zm.802-.085l-.283-.264c-.29-.273-.594-.52-.906-.738.464-.92 1.047-1.925 1.783-2.547-.81.328-1.61 1.304-2.084 2.347-.24-.153-.486-.29-.733-.41.66-1.408 2.193-2.584 3.883-2.676-1.132 1.028-.707 3.076-1.66 4.29zm-2.325.96c-.124-.27-.25-.72-.235-.983.21-.005.614.074.678.09-.025.123-.038.395-.038.43.04-.07.15-.306.196-.4.405.077.936.206 1.247.35-.366.238-.987.495-1.847.513zM17.24 9.956c-1.477 1.497-.894 3.39-.356 4.246-.765 1.274-2.27 2.144-4.016 2.54 1.96 0 3.115-.505 3.786-1 .428-.315.66-.626.78-.8 2.907.19 7.51 1.126 7.96 1.43.18.12.366.39.394.648-2.185-.306-6.124-.628-7.155-.682.733.104 6.073 1.115 7 1.352-.283.46-.925.784-1.892.558.523.712-.492 1.566-1.906 1.096.31.7-.947 1.328-2.378.6.018.7-1.775.78-2.483.007.015.09.1.267.135.345-.228 2.042-1.9 3.31-3.614 3.31-4.193 0-7.847-3.408-7.847-7.94 0-4.79 3.54-8.367 7.814-8.367 2.448 0 3.554 1.927 3.78 2.657z"/></svg>