<svg xmlns="http://www.w3.org/2000/svg" viewBox="0 0 100 125"><path fill="#039BE5" d="M94.902 21.25l-45-16.347L4.904 21.25v11.326l5.472 1.988-5.473 1.987V78.56l45 16.345 45-16.345V36.55l-5.472-1.986 5.473-1.988V21.25zm-45-13.09l38.985 14.162L49.902 36.48 10.92 22.322 49.902 8.16zM7.972 24.507L48.368 39.18v5.927L7.97 30.434v-5.927zM48.368 91.09L7.97 76.416V39.808l40.4 14.674V91.09zm40.517-53.467l-38.984 14.16-38.984-14.16 3.938-1.43L49.902 48.92l35.045-12.73 3.94 1.433z"/><path fill="#039BE5" d="M35.693 56.02l-15.6-5.665c-1.694-.615-3.067.256-3.067 1.946s1.373 3.56 3.066 4.176l15.6 5.665c1.694.616 3.067-.255 3.067-1.945s-1.373-3.558-3.067-4.174z"/><text y="115" font-size="5" font-weight="bold" font-family="'Helvetica Neue', Helvetica, Arial-Unicode, Arial, Sans-serif">Created by Océan Bussard</text><text y="120" font-size="5" font-weight="bold" font-family="'Helvetica Neue', Helvetica, Arial-Unicode, Arial, Sans-serif">from the Noun Project</text></svg>