<svg xmlns="http://www.w3.org/2000/svg" viewBox="0 0 100 125"><path d="M-192 0H-7v99h-185zM0-36h100v30H0z"/><text transform="translate(66 -19.5)" font-family="'Helvetica'" font-size="2.4">http://thenounproject.com</text><text transform="translate(7.166 -24.5)"><tspan x="0" y="0" font-family="'Helvetica-Bold'" font-size="6.158">The Noun Project</tspan><tspan x="1.12" y="4.8" font-family="'Helvetica-Bold'" font-size="4">Icon Template</tspan></text><text transform="translate(-178.5 10.5)" font-family="'Helvetica-Bold'" font-size="6.158">Reminders</text><path stroke="#FFF" stroke-miterlimit="10" d="M8-14.5h10M-179 16.5h17"/><path d="M-170.802 31.318h8.72v8.642h-8.72z"/><path d="M-164.455 42.312h4.747V37.61h-4.747v4.702zm5.19.437h-5.63v-5.58h5.63v5.58zm-6.956 1.312h8.278V35.86h-8.28v8.202zm8.72.438h-9.163v-9.08h9.163v9.08z"/><path d="M-166.15 44.133l-.142-.142 8.28-8.203.14.142"/><path fill="none" d="M-179 58h35v32.5h-35z"/><text transform="translate(-179 60.157)"><tspan x="0" y="0" font-family="'Helvetica-Bold'" font-size="3">Strokes</tspan><tspan x="0" y="5" font-family="'Helvetica'" font-size="2.4">Try to keep strokes at 4px</tspan><tspan x="0" y="10" font-family="'Helvetica'" font-size="2.4">Minimum stroke weight is 2px</tspan><tspan x="0" y="14.5" font-family="'Helvetica'" font-size="2.4">For thicker strokes use even </tspan><tspan x="0" y="17.5" font-family="'Helvetica'" font-size="2.4">numbers: 6px, 8px etc.</tspan><tspan x="0" y="22" font-family="'Helvetica-Bold'" font-size="2.4">Remember to expand strokes </tspan><tspan x="0" y="25" font-family="'Helvetica-Bold'" font-size="2.4">before saving as an SVG</tspan></text><path fill="none" d="M-136.5 58h35v32.5h-35z"/><text transform="translate(-136.5 60.157)"><tspan x="0" y="0" font-family="'Helvetica-Bold'" font-size="3">Size</tspan><tspan x="0" y="5" font-family="'Helvetica'" font-size="2.4">Cannot be wider or taller than </tspan><tspan x="0" y="8.5" font-family="'Helvetica'" font-size="2.4">100px (artboard size)</tspan><tspan x="0" y="13.5" font-family="'Helvetica'" font-size="2.4">Scale your icon to fill as much of </tspan><tspan x="0" y="16.5" font-family="'Helvetica'" font-size="2.4">the artboard as possible</tspan></text><path fill="none" d="M-94 58h35v32.5h-35z"/><text transform="translate(-94 60.157)"><tspan x="0" y="0" font-family="'Helvetica-Bold'" font-size="3">Ungroup</tspan><tspan x="0" y="5" font-family="'Helvetica'" font-size="2.4">If your design has more than one </tspan><tspan x="0" y="8" font-family="'Helvetica'" font-size="2.4">shape, make sure to ungroup</tspan></text><path fill="none" d="M-50 58h35v32.5h-35z"/><text transform="translate(-50 60.157)"><tspan x="0" y="0" font-family="'Helvetica-Bold'" font-size="3">Save as</tspan><tspan x="0" y="5" font-family="'Helvetica'" font-size="2.4">Save as .SVG and make sure </tspan><tspan x="0" y="8" font-family="'Helvetica'" font-size="2.4">“Use Artboards” is checked</tspan></text><text transform="matrix(1.0074 0 0 1 -125.542 30.593)" font-family="'Helvetica'" font-size="2.573">100px</text><text transform="matrix(1.0074 0 0 1 -41 39)" font-family="'Helvetica-Bold'" font-size="5.146">.SVG</text><path d="M-126.514 34.815h10.26V45h-10.26zM-126.477 31.766h.522v2.337h-.522zM-116.812 31.766h.523v2.337h-.522z"/><path d="M-127 32.337h11.233v.572H-127zM-83.805 33.844H-73.5V44h-10.305zM-76.81 28.707h3.31v3.26h-3.31z"/><path stroke="#FFF" stroke-miterlimit="10" d="M-178.5 22.5h30v30h-30zM-136.5 22.5h30v30h-30zM-93.5 22.5h30v30h-30zM-49.5 22.5h30v30h-30z"/><g><g fill="#039BE5"><path d="M69.715 82.765c16.398 4.014 38.392-21.828 26.058-54.135-9.454 3.3-16.015 4.98-25.27 4.783-6.03-.133-10.412-1.022-14.8-2.544.22 9.238-1.872 18.624-6.17 26.892C53.14 70.615 61.312 80.7 69.714 82.765zm4.624-35.742c.883-3.667.845 2.36 6.428 4.084 5.86 1.802 8.93-3.665 7.894.2-1.024 3.812-5.142 5.788-9.08 4.49-3.822-1.255-6.127-5.15-5.243-8.774zm-4.242 12.172c7.806 1.077 14.506 8.005 15.39 15.88-3.19-5.9-9.035-10.39-15.456-11.414-6.09-.96-11.155 1.44-13.806 5.668.882-6.63 6.582-11.14 13.872-10.133zm-9.484-10.043c4.918-.65 5.058-6.413 5.766-2.78.722 3.646-1.518 6.926-4.89 7.298-3.27.354-6.377-2.163-7.032-5.598-.655-3.44 1.466 1.7 6.156 1.08z"/><path d="M.678 37.747c.03.48.06.952.103 1.42.03.384.053.763.105 1.13.044.472.103.94.17 1.403.05.36.095.726.146 1.08.082.472.163.93.25 1.38.075.345.134.69.208 1.028.096.473.22.934.332 1.396.087.307.147.624.235.933.147.51.31 1.01.45 1.514.073.233.153.488.228.72.25.733.5 1.44.78 2.146.08.198.17.392.257.59.2.495.405.986.626 1.467.132.27.265.532.383.794.205.395.39.794.595 1.176.147.278.302.545.45.824.206.35.404.706.604 1.044.168.278.338.546.507.81.214.33.42.653.633.96.17.264.36.525.537.773.214.306.443.604.67.896.192.246.383.494.582.728.22.283.455.56.69.824.208.235.39.467.598.69.243.258.486.51.73.76.205.217.41.43.624.633.25.24.5.476.76.702.212.19.425.384.64.576.25.22.522.43.795.64.213.172.427.345.64.512.28.21.567.395.854.59.207.147.413.294.627.434.294.202.62.377.92.56.192.105.39.232.568.338.397.213.795.412 1.2.597.095.054.198.117.323.174.508.222 1.024.435 1.532.614.17.067.33.115.508.17.338.11.692.23 1.038.317.207.062.413.105.62.145.3.082.617.152.912.202.228.04.45.06.67.097.287.04.588.08.876.107l.678.032c.19.006.375.025.567.025.087 0 .16-.015.235-.02.382 0 .794-.034 1.186-.072.17-.016.362-.02.538-.045.56-.083 1.127-.185 1.68-.327 13.93-3.685 27.14-30.23 19.158-54.41C43.12 19.76 37.938 21.5 29.446 21.7c-.552.01-1.08.02-1.61.02-.973-.004-1.916-.03-2.844-.078-.104-.002-.2-.006-.294-.013-.89-.05-1.767-.12-2.63-.21-.124-.015-.25-.022-.36-.037-.847-.094-1.67-.21-2.496-.346-.147-.02-.272-.04-.412-.065-.824-.138-1.634-.288-2.452-.47-.14-.028-.28-.06-.42-.09-.832-.178-1.64-.378-2.474-.6-.14-.034-.28-.067-.412-.108-.84-.227-1.7-.473-2.57-.736-.125-.04-.25-.077-.368-.114-.905-.276-1.827-.562-2.776-.882-.08-.025-.176-.055-.265-.09-.987-.33-2.01-.68-3.07-1.057-.36.998-.692 1.988-.986 2.975-.104.323-.185.65-.28.976-.192.652-.37 1.304-.524 1.948-.103.39-.184.765-.265 1.15-.132.58-.265 1.158-.368 1.732-.08.397-.14.802-.222 1.204-.08.543-.17 1.086-.243 1.62-.066.414-.11.82-.155 1.22-.06.522-.117 1.04-.147 1.554-.036.41-.065.812-.095 1.213-.03.508-.05 1.003-.066 1.5-.015.403-.015.804-.015 1.203 0 .486 0 .972.015 1.455.006.39.02.787.036 1.172zm37.677-4.326c3.232-1.024 6.332.9 7.032 4.24.67 3.28-1.466-1.42-6.067.153-4.816 1.652-4.787 7.39-5.596 3.935-.803-3.497 1.296-7.257 4.63-8.327zm-8.158 22.74c5.964-1.132 10.867-5.262 13.4-10.435-.773 6.956-6.207 13.337-13.305 14.845-7.606 1.617-14.535-2.87-15.904-10.46 3.512 4.827 9.49 7.26 15.81 6.05zm-18.68-14.807c.757-4.072 4.74-6.93 8.76-6.417 3.874.504 6.334 3.98 5.634 7.78-.714 3.797-.957-2.186-6.567-2.774-5.92-.62-8.585 5.478-7.827 1.41z"/></g></g><text y="115" font-size="5" font-weight="bold" font-family="'Helvetica Neue', Helvetica, Arial-Unicode, Arial, Sans-serif">Created by Phil Goodwin</text><text y="120" font-size="5" font-weight="bold" font-family="'Helvetica Neue', Helvetica, Arial-Unicode, Arial, Sans-serif">from the Noun Project</text></svg>