<svg xmlns="http://www.w3.org/2000/svg" viewBox="0 0 100 125"><path fill="#039BE5" d="M84.086 38.313c3.637 0 6.597-2.958 6.602-6.597 0-3.642-2.963-6.607-6.602-6.607h-7.91l1.725-8.292c.358-1.727.023-3.488-.943-4.964-.968-1.475-2.45-2.483-4.177-2.843-.444-.09-.897-.138-1.35-.138-3.105 0-5.82 2.21-6.46 5.257l-2.284 10.98-14.674.004 1.742-8.387c.362-1.727.026-3.488-.94-4.966-.967-1.472-2.452-2.484-4.177-2.842-.443-.094-.9-.142-1.35-.142-3.11 0-5.826 2.212-6.46 5.258l-2.302 11.08H20.823c-3.637 0-6.598 2.96-6.598 6.6 0 3.638 2.963 6.598 6.603 6.598h10.95L27.37 59.507H15.91c-3.637 0-6.598 2.96-6.598 6.602 0 3.636 2.962 6.597 6.602 6.597h8.71l-2.182 10.48c-.74 3.56 1.557 7.062 5.122 7.806.443.09.897.14 1.348.14 3.11 0 5.827-2.212 6.46-5.257l2.737-13.168h14.677l-2.2 10.574c-.357 1.725-.024 3.488.942 4.96.967 1.477 2.45 2.486 4.18 2.845.443.093.895.14 1.345.14 3.11 0 5.83-2.21 6.463-5.257l2.756-13.262H79.17c3.64 0 6.6-2.96 6.603-6.598 0-3.642-2.962-6.607-6.602-6.607H69.023l4.406-21.188h10.658zm-24.147 0L55.534 59.5l-14.678.007 4.407-21.194H59.94z"/><text y="115" font-size="5" font-weight="bold" font-family="'Helvetica Neue', Helvetica, Arial-Unicode, Arial, Sans-serif">Created by Mike Ashley</text><text y="120" font-size="5" font-weight="bold" font-family="'Helvetica Neue', Helvetica, Arial-Unicode, Arial, Sans-serif">from the Noun Project</text></svg>