<svg xmlns="http://www.w3.org/2000/svg" xmlns:xlink="http://www.w3.org/1999/xlink" version="1.1" x="0px" y="0px" viewBox="0 0 100 125" enable-background="new 0 0 100 100" xml:space="preserve"><path fill="#039BE5" d="M94.902,21.25l-45-16.347L4.904,21.25v11.326l5.472,1.988l-5.473,1.987v42.007l45,16.345l45-16.345V36.551  l-5.472-1.987l5.472-1.988V21.25z M49.902,8.16l38.985,14.162L49.902,36.48L10.92,22.322L49.902,8.16z M7.971,24.507L48.369,39.18  v5.927L7.971,30.434V24.507z M48.369,91.09L7.97,76.416V39.808l40.399,14.674V91.09z M88.887,37.623l-38.984,14.16l-38.984-14.16  l3.939-1.431L49.902,48.92l35.045-12.729L88.887,37.623z"/><path fill="#039BE5" d="M35.693,56.021l-15.601-5.666c-1.693-0.615-3.066,0.256-3.066,1.946c0,1.69,1.373,3.559,3.066,4.175  l15.601,5.665c1.693,0.615,3.066-0.256,3.066-1.946S37.387,56.637,35.693,56.021z"/><text x="0" y="115" fill="#000000" font-size="5px" font-weight="bold" font-family="'Helvetica Neue', Helvetica, Arial-Unicode, Arial, Sans-serif">Created by Océan Bussard</text><text x="0" y="120" fill="#000000" font-size="5px" font-weight="bold" font-family="'Helvetica Neue', Helvetica, Arial-Unicode, Arial, Sans-serif">from the Noun Project</text></svg>